<?xml version="1.0" encoding="utf-8"?>
<!-- Svg Vector Icons : http://www.onlinewebfonts.com/icon -->
<!DOCTYPE svg PUBLIC "-//W3C//DTD SVG 1.1//EN" "http://www.w3.org/Graphics/SVG/1.1/DTD/svg11.dtd">
<svg version="1.1" width="30" height="20" xmlns="http://www.w3.org/2000/svg" xmlns:xlink="http://www.w3.org/1999/xlink" x="0px" y="0px" viewBox="0 0 1000 1000" enable-background="new 0 0 1000 1000" xml:space="preserve">
<metadata> Svg Vector Icons : http://www.onlinewebfonts.com/icon </metadata>
<g><g fill="#ffffff" transform="translate(0.000000,511.000000) scale(0.100000,-0.100000)"><path d="M269.4,2312.4C97,2176.3,100,2212.6,100,522.1c0-1524.2,0-1557.5,63.5-1633.1c90.7-121,235.9-145.2,722.8-136.1l435.5,9.1l24.2,130c96.8,577.6,686.5,1013.1,1230.8,913.3c359.9-66.5,635.1-275.2,804.4-610.9c57.5-117.9,105.8-244.9,105.8-284.3c0-172.4-93.8-163.3,1497-163.3h1457.7l21.2,145.2c42.3,332.7,311.5,674.4,650.2,831.7c368.9,172.4,807.4,102.8,1122-181.5c190.5-172.4,320.6-393.1,365.9-620l36.3-175.4h511.1c559.5,0,665.3,24.2,719.7,169.3c51.4,133.1,36.3,1666.4-15.1,1923.4c-66.5,314.5-190.5,710.7-278.2,886.1c-102.8,202.6-384.1,547.4-492.9,604.8c-75.6,39.3-620,45.4-4409.3,45.4H351L269.4,2312.4z M1672.6,1257V621.9h-544.4H583.9V1257v635.1h544.4h544.4V1257z M3184.7,1257V621.9h-544.4H2096V1257v635.1h544.4h544.4V1257z M4696.8,1257V621.9h-544.4h-544.4V1257v635.1h544.4h544.4V1257z M6208.9,1257V621.9h-544.4h-544.4V1257v635.1h544.4h544.4V1257z M7721,1257V621.9h-544.4h-544.4V1257v635.1h544.4H7721V1257z M8712.9,1846.7c290.3-87.7,450.6-290.3,610.9-762.1c90.7-278.2,163.3-647.2,196.6-1028.2l21.2-220.8h-668.4h-668.3V845.7c0,780.3,9.1,1013.1,39.3,1025.2C8322.8,1904.2,8561.7,1889,8712.9,1846.7z"/><path d="M2189.7-454.7c-372-99.8-604.8-393.1-632.1-786.3c-12.1-184.5-3-241.9,60.5-378c99.8-220.8,199.6-329.6,393.1-435.5c139.1-78.6,190.5-90.7,402.2-90.7c202.6,0,266.1,15.1,396.2,81.7c302.4,157.3,465.7,438.5,465.7,792.4C3275.4-711.8,2731.1-303.5,2189.7-454.7z M2625.2-796.5c420.4-190.5,444.6-768.1,45.4-970.8c-365.9-187.5-786.3,72.6-786.3,480.9c0,238.9,108.9,402.2,332.7,499C2359.1-726.9,2480.1-729.9,2625.2-796.5z"/><path d="M7349-439.6c-187.5-45.4-338.7-139.1-471.8-287.3c-462.7-526.2-127-1351.8,583.7-1424.4c771.2-78.6,1233.9,861.9,716.7,1451.6C7993.2-494,7618.2-373.1,7349-439.6z M7829.8-829.7c347.8-217.8,317.5-750-51.4-937.5c-359.9-184.5-783.3,75.6-783.3,483.9c0,136.1,78.6,314.5,175.4,402.2C7333.9-732.9,7633.3-711.8,7829.8-829.7z"/></g></g>
</svg>