<?xml version="1.0" standalone="no"?>
<!DOCTYPE svg PUBLIC "-//W3C//DTD SVG 20010904//EN"
 "http://www.w3.org/TR/2001/REC-SVG-20010904/DTD/svg10.dtd">
<svg version="1.0" xmlns="http://www.w3.org/2000/svg"
 width="40" height="40" viewBox="0 0 200.000000 200.000000"
 preserveAspectRatio="xMidYMid meet">

<g transform="translate(0.000000,200.000000) scale(0.100000,-0.100000)"
fill="#715de2" stroke="none">
<path d="M1055 1671 c-51 -22 -60 -46 -65 -175 l-5 -121 -79 -130 c-77 -125
-125 -187 -155 -196 -11 -4 -8 -61 19 -334 28 -283 35 -333 51 -350 19 -19 35
-20 352 -23 347 -3 381 0 432 40 35 27 64 92 65 141 0 20 9 54 20 74 11 22 20
57 20 82 0 29 9 59 25 87 20 34 25 56 24 97 -2 43 3 60 22 86 32 43 33 117 3
158 -34 45 -70 52 -296 52 -123 1 -208 5 -208 10 0 6 7 40 16 78 36 155 -8
340 -98 406 -29 22 -111 32 -143 18z"/>
<path d="M221 1061 c-11 -11 -23 -36 -26 -55 -9 -47 34 -625 48 -656 l12 -25
253 -3 253 -2 -5 32 c-3 18 -20 179 -36 358 -17 179 -33 335 -36 348 l-4 22
-220 0 c-205 0 -221 -1 -239 -19z"/>
</g>
</svg>
